<svg width="33" height="18" viewBox="0 0 33 18" fill="none" xmlns="http://www.w3.org/2000/svg">
<path d="M13.925 6.1C13.925 7.11667 13.6917 8.05 13.225 8.9C12.7583 9.73333 12.0417 10.4083 11.075 10.925C10.1083 11.4417 8.90833 11.7 7.475 11.7H4.825V18H0.55V0.449999H7.475C8.875 0.449999 10.0583 0.691666 11.025 1.175C11.9917 1.65833 12.7167 2.325 13.2 3.175C13.6833 4.025 13.925 5 13.925 6.1ZM7.15 8.3C7.96667 8.3 8.575 8.10833 8.975 7.725C9.375 7.34167 9.575 6.8 9.575 6.1C9.575 5.4 9.375 4.85833 8.975 4.475C8.575 4.09167 7.96667 3.9 7.15 3.9H4.825V8.3H7.15Z" fill="white"/>
<path d="M27.0756 14.9H20.5256L19.4756 18H15.0006L21.3506 0.449999H26.3006L32.6506 18H28.1256L27.0756 14.9ZM25.9756 11.6L23.8006 5.175L21.6506 11.6H25.9756Z" fill="url(#paint0_linear_1_103)"/>
<defs>
<linearGradient id="paint0_linear_1_103" x1="28.75" y1="-10" x2="2.37721" y2="25.9863" gradientUnits="userSpaceOnUse">
<stop stop-color="#B75CFF"/>
<stop offset="1" stop-color="#671AE4"/>
</linearGradient>
</defs>
</svg>
